<?xml version="1.0" encoding="UTF-8"?>
<svg id="Layer_2" xmlns="http://www.w3.org/2000/svg" viewBox="0 0 757.88 231.79">
  <defs>
    <style>
      .cls-1 {
        fill: #fff;
      }

      .cls-2 {
        fill: #4ca672;
      }
    </style>
  </defs>
  <g id="Layer_1-2" data-name="Layer_1">
    <g>
      <g>
        <path class="cls-2" d="M137.25,101.82l-.39-.19v-37.47s-17.51-8.87-17.51-8.87l-17.51-8.87-5.81-2.94-10.09-5.11-7.69-3.9-1.6-.81-1.6.81-6.62,3.35-11.16,5.66-4.74,2.4-17.51,8.87-17.51,8.87v37.47S0,109.96,0,109.96v46.79s9.67,4.9,9.67,4.9l7.84,3.97v-44.91s17.51-8.87,17.51-8.87l10.14-5.14h0s7.36-3.73,7.36-3.73l7-3.55,8.9-4.51v121.5s8.22,5.96,8.22,5.96l9.29-8.56v-118.36s7.84,3.97,7.84,3.97l8.06,4.08,6.29,3.19h0s11.21,5.68,11.21,5.68l17.51,8.87.39.2v43.44s6.38-3.24,6.38-3.24l11.13-5.64v-45.32s-17.51-8.87-17.51-8.87ZM119.35,92.76l-17.51-8.87-5.82-2.94-10.08-5.11-9.29-4.7-8.22,4.16-11.15,5.65-4.75,2.41-17.51,8.87v-17.84s10.48-5.31,10.48-5.31l7.03-3.56,6.51-3.3,9.39-4.76,8.22-4.17,9.29,4.7,8.31,4.22h0s7.58,3.84,7.58,3.84l5.96,3.02,11.55,5.85v17.84Z"/>
        <polygon class="cls-2" points="154.76 172.6 154.76 192.23 137.25 201.1 96.03 221.98 76.66 231.79 57.28 221.98 17.51 201.84 0 192.96 0 173.34 35.02 191.08 44.65 195.95 44.65 195.96 52.53 199.95 60.29 203.87 76.66 212.17 93.02 203.87 101.84 199.41 108.66 195.96 108.66 195.95 119.35 190.54 137.25 181.47 154.76 172.6"/>
        <polygon class="cls-2" points="119.35 129.74 119.35 173.96 101.84 182.83 101.84 120.86 119.35 129.74"/>
        <polygon class="cls-2" points="52.53 120.33 52.53 183.37 35.02 174.5 35.02 129.19 52.53 120.33"/>
        <polygon class="cls-2" points="103.86 13.78 96.03 9.81 76.66 0 57.28 9.81 48.94 14.04 48.94 33.66 52.53 31.85 60.29 27.92 76.66 19.62 93.02 27.92 101.84 32.38 103.86 33.4 103.86 13.78"/>
      </g>
      <g>
        <path class="cls-1" d="M216.44,153.02l13.03-6.51c2.35,5.23,7.37,7.9,14.84,7.9,6.73,0,11.85-2.78,11.85-7.9,0-5.98-5.66-6.94-13.13-8.22-10.78-1.81-25.41-5.66-25.41-21.89,0-12.6,11.32-22.21,26.16-22.21,11.85,0,22.1,5.45,26.69,15.69l-13.03,6.51c-2.35-4.59-7.05-7.79-14.31-7.79-5.87,0-9.93,2.78-9.93,7.15,0,5.77,5.98,7.26,13.77,8.65,10.68,1.81,24.77,5.66,24.77,21.99,0,12.92-12.17,22.31-27.44,22.31-12.92,0-23.27-5.45-27.87-15.69Z"/>
        <path class="cls-1" d="M286.16,167.33v-71.85h15.59v28.93h32.78v-28.93h15.59v71.85h-15.59v-28.61h-32.78v28.61h-15.59Z"/>
        <path class="cls-1" d="M379.8,105.61c2.46-7.79,8.86-11.53,15.59-11.53s13.24,3.74,15.69,11.53l19,61.71h-15.91l-4.16-14.73-29.15.11-4.16,14.63h-15.91l19-61.71ZM384.92,138.71h21.03l-8.11-28.51c-.43-1.49-1.07-2.14-2.35-2.14-1.17,0-1.92.64-2.35,2.14l-8.22,28.51Z"/>
        <path class="cls-1" d="M434.14,131.45c0-20.71,16.02-37.26,37.26-37.26,12.28,0,24.45,6.19,29.79,17.72l-12.71,7.15c-3.63-6.41-9.18-10.25-17.72-10.25-12.06,0-20.61,9.82-20.61,22.85s8.65,22.95,21.25,22.95c7.05,0,12.17-1.81,15.48-5.23l-.11-15.91h15.16v21.14c-5.23,7.9-16.33,14.2-30.54,14.2-21.03,0-37.26-16.66-37.26-37.37Z"/>
        <path class="cls-1" d="M516.47,167.33v-71.85h15.59v28.93h32.78v-28.93h15.59v71.85h-15.59v-28.61h-32.78v28.61h-15.59Z"/>
        <path class="cls-1" d="M615.23,152.91h33.52v14.41h-35.34c-9.93,0-13.77-5.12-13.77-13.35v-58.51h15.59v57.44Z"/>
        <path class="cls-1" d="M658.69,167.33v-62.03c0-7.15,5.23-11.32,11.1-11.32,4.7,0,8.43,1.71,10.78,5.66l28.4,48.69v-52.85h14.73v62.03c0,7.15-5.23,11.21-10.89,11.21-4.59,0-8.54-1.6-10.89-5.55l-28.4-49.01v53.17h-14.84Z"/>
        <path class="cls-1" d="M757.88,95.47v71.85h-15.59v-71.85h15.59Z"/>
      </g>
    </g>
  </g>
</svg>