<svg width="758" height="232" viewBox="0 0 758 232" fill="none" xmlns="http://www.w3.org/2000/svg">
<g clip-path="url(#clip0_59_2)">
<path d="M137.25 101.82L136.86 101.63V64.1602L119.35 55.2902L101.84 46.4202L96.03 43.4802L85.94 38.3702L78.25 34.4702L76.65 33.6602L75.05 34.4702L68.43 37.8202L57.27 43.4802L52.53 45.8802L35.02 54.7502L17.51 63.6202V101.09L0 109.96V156.75L9.67 161.65L17.51 165.62V120.71L35.02 111.84L45.16 106.7L52.52 102.97L59.52 99.4202L68.42 94.9102V216.41L76.64 222.37L85.93 213.81V95.4502L93.77 99.4202L101.83 103.5L108.12 106.69L119.33 112.37L136.84 121.24L137.23 121.44V164.88L143.61 161.64L154.74 156V110.68L137.23 101.81L137.25 101.82ZM119.35 92.7602L101.84 83.8902L96.02 80.9502L85.94 75.8402L76.65 71.1402L68.43 75.3002L57.28 80.9502L52.53 83.3602L35.02 92.2302V74.3902L45.5 69.0802L52.53 65.5202L59.04 62.2202L68.43 57.4602L76.65 53.2902L85.94 57.9902L94.25 62.2102L101.83 66.0502L107.79 69.0702L119.34 74.9202V92.7602H119.35Z" fill="#4CA672"/>
<path d="M154.76 172.6V192.23L137.25 201.1L96.03 221.98L76.66 231.79L57.28 221.98L17.51 201.84L0 192.96V173.34L35.02 191.08L44.65 195.95V195.96L52.53 199.95L60.29 203.87L76.66 212.17L93.02 203.87L101.84 199.41L108.66 195.96V195.95L119.35 190.54L137.25 181.47L154.76 172.6Z" fill="#4CA672"/>
<path d="M119.35 129.74V173.96L101.84 182.83V120.86L119.35 129.74Z" fill="#4CA672"/>
<path d="M52.53 120.33V183.37L35.02 174.5V129.19L52.53 120.33Z" fill="#4CA672"/>
<path d="M103.86 13.78L96.0299 9.81L76.6599 0L57.2799 9.81L48.9399 14.04V33.66L52.5299 31.85L60.2899 27.92L76.6599 19.62L93.0199 27.92L101.84 32.38L103.86 33.4V13.78Z" fill="#4CA672"/>
<path d="M216.44 153.02L229.47 146.51C231.82 151.74 236.84 154.41 244.31 154.41C251.04 154.41 256.16 151.63 256.16 146.51C256.16 140.53 250.5 139.57 243.03 138.29C232.25 136.48 217.62 132.63 217.62 116.4C217.62 103.8 228.94 94.1899 243.78 94.1899C255.63 94.1899 265.88 99.6399 270.47 109.88L257.44 116.39C255.09 111.8 250.39 108.6 243.13 108.6C237.26 108.6 233.2 111.38 233.2 115.75C233.2 121.52 239.18 123.01 246.97 124.4C257.65 126.21 271.74 130.06 271.74 146.39C271.74 159.31 259.57 168.7 244.3 168.7C231.38 168.7 221.03 163.25 216.43 153.01L216.44 153.02Z" fill="black"/>
<path d="M286.16 167.33V95.48H301.75V124.41H334.53V95.48H350.12V167.33H334.53V138.72H301.75V167.33H286.16Z" fill="black"/>
<path d="M379.8 105.61C382.26 97.8201 388.66 94.0801 395.39 94.0801C402.12 94.0801 408.63 97.8201 411.08 105.61L430.08 167.32H414.17L410.01 152.59L380.86 152.7L376.7 167.33H360.79L379.79 105.62L379.8 105.61ZM384.92 138.71H405.95L397.84 110.2C397.41 108.71 396.77 108.06 395.49 108.06C394.32 108.06 393.57 108.7 393.14 110.2L384.92 138.71Z" fill="black"/>
<path d="M434.14 131.45C434.14 110.74 450.16 94.1899 471.4 94.1899C483.68 94.1899 495.85 100.38 501.19 111.91L488.48 119.06C484.85 112.65 479.3 108.81 470.76 108.81C458.7 108.81 450.15 118.63 450.15 131.66C450.15 144.69 458.8 154.61 471.4 154.61C478.45 154.61 483.57 152.8 486.88 149.38L486.77 133.47H501.93V154.61C496.7 162.51 485.6 168.81 471.39 168.81C450.36 168.81 434.13 152.15 434.13 131.44L434.14 131.45Z" fill="black"/>
<path d="M516.47 167.33V95.48H532.06V124.41H564.84V95.48H580.43V167.33H564.84V138.72H532.06V167.33H516.47Z" fill="black"/>
<path d="M615.23 152.91H648.75V167.32H613.41C603.48 167.32 599.64 162.2 599.64 153.97V95.46H615.23V152.9V152.91Z" fill="black"/>
<path d="M658.69 167.33V105.3C658.69 98.15 663.92 93.98 669.79 93.98C674.49 93.98 678.22 95.69 680.57 99.64L708.97 148.33V95.48H723.7V157.51C723.7 164.66 718.47 168.72 712.81 168.72C708.22 168.72 704.27 167.12 701.92 163.17L673.52 114.16V167.33H658.68H658.69Z" fill="black"/>
<path d="M757.88 95.4702V167.32H742.29V95.4702H757.88Z" fill="black"/>
</g>
<defs>
<clipPath id="clip0_59_2">
<rect width="757.88" height="231.79" fill="white"/>
</clipPath>
</defs>
</svg>
