<svg width="600" height="600" viewBox="0 0 600 600" fill="none" xmlns="http://www.w3.org/2000/svg">
<rect width="600" height="600" rx="300" fill="#013237"/>
<path d="M416.465 272.677L415.715 272.302V199.558L301.928 141.915L298.814 140.346L295.7 141.915L183.996 198.528V271.272L150 288.504V379.347L183.996 396.556V309.365L282.823 259.285V495.172L298.79 506.738L316.818 490.114V260.338L415.692 310.419L416.441 310.793V395.127L450.437 377.919V289.932L416.441 272.7L416.465 272.677ZM381.72 255.094L298.837 213.114L261.212 232.172L217.992 254.04V219.412L264.631 195.812L298.814 178.463L316.842 187.594L332.973 195.788L381.673 220.442V255.07L381.72 255.094Z" fill="white"/>
<path d="M450.484 410.088V448.205L298.837 525L150.023 449.633V411.517L236.699 455.416V455.44L252.011 463.166L298.837 486.907L330.609 470.799L360.976 455.44V455.416L450.484 410.088Z" fill="white"/>
<path d="M381.743 326.878V412.711L347.747 429.943L347.724 309.646L381.743 326.878Z" fill="white"/>
<path d="M252.011 308.593V430.996L218.015 413.764V325.801L252.011 308.593Z" fill="white"/>
<path d="M351.657 101.761L298.837 75L245.034 102.253V140.346L252.011 136.834L298.837 113.093L330.609 129.201L347.747 137.864L351.657 139.854V101.761Z" fill="white"/>
</svg>
